<?xml version="1.0" standalone="no"?>
<!DOCTYPE svg PUBLIC "-//W3C//DTD SVG 20010904//EN"
 "http://www.w3.org/TR/2001/REC-SVG-20010904/DTD/svg10.dtd">
<svg version="1.0" xmlns="http://www.w3.org/2000/svg"
 width="450.000000pt" height="450.000000pt" viewBox="0 0 450.000000 450.000000"
 preserveAspectRatio="xMidYMid meet">

<g transform="translate(0.000000,450.000000) scale(0.100000,-0.100000)"
fill="#000000" stroke="none">
<path d="M2173 4304 c-24 -26 -43 -51 -43 -55 0 -5 -22 -41 -49 -81 -27 -40
-65 -102 -84 -138 -19 -36 -53 -96 -76 -135 -48 -84 -121 -230 -121 -243 0 -5
-15 -40 -33 -78 -18 -38 -40 -85 -47 -104 -8 -19 -27 -57 -42 -83 -15 -26 -28
-58 -28 -70 0 -12 -9 -46 -20 -76 -16 -44 -18 -70 -14 -145 l5 -91 -55 -29
c-86 -46 -146 -140 -146 -229 0 -36 33 -101 62 -121 12 -9 37 -16 55 -16 l33
0 0 -70 c0 -50 6 -82 19 -108 31 -59 116 -132 156 -132 11 0 26 -4 34 -9 12
-8 12 -13 -3 -36 -9 -14 -32 -72 -50 -128 l-33 -102 -124 -3 c-124 -3 -231 6
-389 35 -96 17 -148 12 -170 -16 -15 -20 -16 -20 -57 -1 -39 17 -42 22 -45 62
-2 34 -8 45 -28 55 -20 10 -26 22 -30 60 l-5 48 -65 0 -65 0 -3 -47 c-2 -37
-7 -48 -23 -53 -12 -4 -22 -19 -26 -36 -3 -16 -13 -35 -22 -42 -33 -24 -51
-62 -51 -107 0 -25 -7 -54 -15 -64 -16 -21 -21 -117 -7 -130 4 -4 7 -26 8 -48
0 -35 7 -47 48 -85 l47 -45 142 7 c78 3 160 11 183 16 29 8 53 8 80 0 50 -14
414 -14 450 -1 15 6 28 9 30 8 15 -16 -120 -430 -175 -537 -16 -31 -43 -92
-61 -136 -18 -44 -41 -92 -51 -107 -11 -14 -19 -30 -19 -35 0 -4 -13 -17 -28
-28 -26 -19 -43 -20 -462 -20 l-434 0 -15 -26 c-13 -24 -13 -29 1 -51 l16 -25
340 -7 c187 -4 371 -4 408 0 59 6 67 5 58 -7 -6 -8 -25 -32 -42 -54 -71 -91
-89 -158 -52 -195 24 -24 63 -25 124 -5 34 12 81 15 193 13 l148 -3 -3 -90 -4
-90 39 -41 c50 -55 87 -64 262 -64 142 0 146 1 184 27 54 37 97 130 97 206 l0
55 68 6 c37 4 160 9 275 12 l207 6 0 -78 0 -78 50 -47 c28 -26 63 -49 81 -53
17 -3 91 -6 164 -6 l132 0 57 51 56 52 0 89 0 89 203 -7 204 -7 16 24 c29 40
21 93 -24 177 -23 43 -46 83 -52 89 -7 10 17 13 116 13 88 0 127 -4 129 -12 3
-7 36 -15 79 -19 81 -8 221 -62 269 -105 26 -23 43 -34 166 -103 74 -41 146
-71 176 -71 24 0 34 56 14 79 -9 10 -16 23 -16 29 0 7 -5 12 -11 12 -18 0
-109 42 -109 50 0 10 66 37 114 45 46 9 65 41 48 80 -10 22 -18 25 -61 25 -27
0 -69 -8 -93 -18 -64 -28 -153 -36 -186 -17 -15 8 -40 20 -57 27 -27 11 -17
13 95 18 111 4 131 8 176 32 54 28 66 49 53 86 -12 32 -52 38 -104 13 -52 -24
-138 -29 -129 -7 3 7 22 16 42 19 20 3 62 10 92 16 30 6 72 13 93 16 25 4 43
14 53 30 15 23 15 27 0 50 -15 23 -23 25 -89 25 l-72 1 80 40 c87 44 95 52 95
90 0 58 -35 62 -134 15 -39 -18 -88 -41 -108 -51 -20 -9 -52 -36 -71 -58 -20
-25 -50 -48 -73 -56 -22 -8 -59 -32 -84 -54 -49 -43 -91 -64 -189 -96 -56 -18
-89 -21 -246 -21 l-181 0 -30 33 c-17 17 -42 48 -56 67 -14 20 -41 51 -60 70
-18 19 -54 60 -78 90 -25 30 -53 64 -63 75 -10 11 -37 47 -60 79 -23 33 -55
74 -72 92 -81 87 -104 115 -149 182 -27 40 -47 75 -45 77 6 5 583 4 751 -2
137 -5 138 -4 163 21 17 17 25 36 25 61 0 19 4 35 9 35 5 0 19 15 30 34 28 45
29 124 1 159 -11 14 -17 32 -14 41 11 29 -17 76 -59 97 -32 17 -52 20 -106 16
-125 -10 -177 -22 -213 -49 l-35 -27 -314 -5 c-173 -2 -336 -7 -364 -11 l-50
-6 -26 43 c-15 24 -45 75 -67 113 -22 39 -54 85 -71 103 -51 54 -55 68 -30
101 28 38 79 211 79 270 0 25 7 78 15 116 9 39 15 99 14 135 -1 36 2 73 6 83
8 20 -4 124 -35 292 -11 61 -24 133 -30 162 -5 28 -15 62 -24 75 -9 15 -19 73
-26 158 -15 191 -75 494 -109 559 -6 11 -11 38 -11 61 0 30 -6 47 -25 65 -13
14 -30 25 -36 25 -7 0 -32 -21 -56 -46z m86 -352 c7 -37 16 -92 21 -122 6 -30
15 -102 20 -160 18 -177 21 -194 35 -225 8 -16 26 -91 40 -165 14 -74 30 -153
35 -175 5 -22 8 -41 6 -42 -8 -8 -210 34 -246 52 -25 12 -81 28 -125 35 -44 7
-99 19 -123 26 -23 8 -77 14 -119 14 l-75 0 6 28 c4 15 10 43 15 62 4 20 23
67 43 105 55 108 104 216 118 260 7 22 18 47 25 55 6 8 24 40 39 70 32 63 118
218 151 270 12 19 34 55 50 80 l28 45 23 -73 c12 -40 27 -103 33 -140z m-396
-870 c14 -6 7 -17 -45 -68 -104 -100 -98 -99 -98 -5 l0 81 63 -1 c34 0 70 -4
80 -7z m128 -122 c17 -21 57 -59 88 -83 60 -47 225 -145 279 -167 30 -12 32
-16 32 -59 0 -50 -53 -236 -71 -246 -30 -19 -232 -40 -286 -30 -29 5 -33 9
-27 28 4 12 15 33 25 46 11 13 19 39 19 58 0 27 -6 37 -28 50 l-28 16 38 35
c52 47 68 81 68 144 -1 41 -7 62 -28 93 -42 61 -138 106 -157 75 -3 -5 -14
-10 -24 -10 -21 0 -73 -54 -89 -93 -17 -39 -15 -142 3 -177 21 -40 62 -70 99
-71 56 -2 -95 -28 -166 -29 -68 0 -68 0 -68 28 1 15 7 45 15 67 19 52 19 80
-1 99 -22 22 -60 20 -102 -6 -34 -21 -35 -21 -48 -3 -15 20 -12 38 14 94 18
38 65 71 102 71 14 0 35 7 47 15 19 14 21 13 16 -4 -3 -12 4 -28 17 -41 33
-33 66 -19 145 64 39 40 73 74 77 75 4 0 21 -17 39 -39z m-16 -165 c33 -32 32
-65 -3 -98 -29 -28 -56 -35 -67 -17 -3 6 1 10 9 10 20 0 56 35 56 55 0 9 -11
26 -25 39 -23 21 -24 36 -3 36 5 0 20 -11 33 -25z m-78 -351 c-3 -3 -12 -4
-19 -1 -8 3 -5 6 6 6 11 1 17 -2 13 -5z m-113 -19 c3 -9 0 -15 -8 -15 -8 0
-16 7 -20 15 -3 9 0 15 8 15 8 0 16 -7 20 -15z m53 4 c-14 -8 -22 -8 -30 0 -8
8 -3 11 19 11 25 -1 27 -2 11 -11z m37 -35 c4 -10 1 -14 -6 -12 -15 5 -23 28
-10 28 5 0 13 -7 16 -16z m416 -127 c0 -7 24 -42 53 -78 29 -35 67 -89 83
-119 70 -126 88 -158 125 -220 21 -36 54 -108 75 -160 43 -112 141 -266 228
-359 34 -36 87 -100 118 -141 31 -41 69 -89 84 -107 47 -52 150 -174 196 -233
24 -30 68 -74 98 -99 30 -24 64 -58 75 -75 18 -29 55 -104 55 -112 0 -2 -96
-1 -213 3 -184 5 -219 4 -263 -11 -46 -15 -87 -16 -385 -10 -294 6 -346 5
-439 -11 -114 -19 -199 -21 -688 -18 l-323 3 65 79 c35 44 67 90 71 103 4 12
15 32 25 43 22 24 93 165 110 220 7 22 26 63 41 90 42 76 149 383 179 515 14
64 46 164 60 188 14 25 37 91 82 237 21 72 50 154 64 183 13 29 24 62 24 73 0
20 4 21 164 17 91 -1 168 0 172 5 13 12 64 8 64 -6z m-1479 -297 c50 -16 96
-33 103 -39 6 -5 27 -12 46 -16 19 -4 38 -13 42 -19 4 -6 8 -41 8 -78 l0 -67
-37 -10 c-21 -5 -81 -11 -134 -14 -95 -4 -96 -4 -91 19 4 21 -5 32 -55 74 -17
14 -15 15 17 18 44 4 70 27 70 62 0 31 -13 45 -53 55 -26 7 -35 24 -20 38 8 9
0 11 104 -23z m2746 -2 c-32 -11 -45 -48 -28 -84 10 -22 16 -24 77 -24 79 0
86 -22 9 -31 -55 -6 -79 -30 -71 -71 5 -28 5 -28 -48 -28 -53 0 -54 1 -59 33
-3 17 -11 55 -18 82 -14 61 -1 102 33 109 13 2 41 8 63 14 53 13 77 13 42 0z
m-2287 -38 c78 -11 189 -20 262 -20 l127 0 -16 -47 c-9 -26 -25 -62 -35 -79
-24 -40 -48 -44 -300 -50 l-187 -5 -3 111 c-2 69 1 110 7 110 6 0 71 -9 145
-20z m2036 -95 c6 -33 15 -68 19 -78 7 -16 -9 -17 -296 -15 l-304 3 -26 65
c-14 36 -25 67 -23 69 12 14 111 19 348 17 l270 -1 12 -60z"/>
<path d="M2721 1132 c-5 -10 -8 -76 -7 -147 2 -137 6 -148 49 -127 12 6 33 12
47 14 15 2 26 10 28 22 3 16 -2 18 -42 15 l-46 -4 0 37 c0 35 2 37 37 40 27 2
39 8 41 21 3 15 -2 17 -37 11 l-41 -7 0 53 0 52 43 -4 c32 -2 42 1 42 12 0 29
-99 40 -114 12z"/>
<path d="M2915 1140 c-3 -5 -4 -14 -1 -19 5 -7 15 -86 29 -215 3 -32 -20 -29
-32 4 -6 17 -15 29 -21 25 -14 -9 -13 -68 2 -83 32 -32 105 10 94 53 -3 11
-11 63 -17 115 -6 52 -15 102 -20 112 -11 20 -25 23 -34 8z"/>
<path d="M1545 1128 c-3 -8 -4 -81 -3 -163 3 -125 5 -150 18 -150 12 0 16 19
20 95 l5 94 13 -48 c22 -84 53 -147 71 -144 14 3 16 24 19 143 3 153 -1 185
-23 185 -12 0 -15 -19 -16 -107 l0 -108 -19 55 c-49 147 -71 185 -85 148z"/>
<path d="M1707 1133 c-6 -10 11 -302 18 -322 4 -10 14 -11 38 -6 17 4 42 7 55
6 16 0 22 5 22 19 0 23 -45 39 -63 21 -21 -21 -27 -11 -27 42 0 51 1 53 27 52
38 0 41 23 4 36 -22 8 -31 17 -31 32 0 12 -3 32 -6 44 -5 19 -2 22 33 25 50 4
53 32 3 36 -19 2 -39 8 -44 13 -12 11 -23 12 -29 2z"/>
<path d="M2392 1107 c-33 -35 -24 -107 13 -107 15 0 20 -23 16 -70 -3 -32 -7
-35 -44 -35 -25 0 -32 -4 -32 -20 0 -29 53 -32 88 -5 24 19 27 28 27 80 0 51
-3 61 -26 79 -32 25 -29 56 6 56 18 0 25 5 25 20 0 30 -45 32 -73 2z"/>
<path d="M2522 988 c2 -89 7 -142 13 -141 6 1 12 23 15 48 l5 46 38 -50 c20
-28 42 -51 48 -51 22 0 21 32 -4 58 -13 15 -32 42 -42 60 -15 30 -15 35 -1 45
22 17 66 79 66 93 0 31 -30 19 -61 -24 l-34 -47 -5 50 c-4 37 -9 51 -23 53
-16 3 -17 -7 -15 -140z"/>
<path d="M1858 1113 c-28 -7 -21 -31 10 -37 l27 -6 -3 -130 c-3 -109 -1 -130
11 -130 8 0 20 7 27 15 10 12 10 18 0 30 -10 11 -11 39 -6 105 8 110 12 120
42 120 14 0 24 6 24 14 0 18 -87 31 -132 19z"/>
<path d="M2026 1093 c-10 -55 -17 -271 -9 -276 4 -3 37 -7 73 -9 59 -3 65 -1
65 17 0 14 -7 20 -25 21 -14 0 -38 1 -54 2 l-29 2 6 135 c4 109 3 135 -8 135
-7 0 -16 -12 -19 -27z"/>
<path d="M2180 1008 c0 -62 3 -130 6 -150 6 -36 8 -38 44 -38 51 0 70 8 70 31
0 17 -5 18 -39 13 -36 -6 -40 -4 -43 17 -1 13 -1 39 1 57 3 28 7 32 32 32 40
0 39 29 -1 37 -26 5 -30 10 -30 39 0 32 2 33 43 36 29 2 42 8 42 18 0 11 -15
16 -62 18 l-63 3 0 -113z"/>
</g>
</svg>
